<?xml version="1.0" encoding="UTF-8"?>
<svg id="Layer_1" data-name="Layer 1" xmlns="http://www.w3.org/2000/svg" viewBox="0 0 4000 4000">
  <defs>
    <style>
      .cls-1 {
        fill: #f9d6b6;
      }

      .cls-2 {
        fill: #fff;
      }

      .cls-3 {
        fill: #ffeb52;
      }

      .cls-4 {
        fill: #ffb774;
      }

      .cls-5 {
        fill: #fddba5;
      }

      .cls-6 {
        fill: #d2623a;
      }

      .cls-7 {
        fill: #d3613b;
      }

      .cls-8 {
        fill: #22a7f0;
      }

      .cls-9 {
        fill: #220f2d;
      }

      .cls-10 {
        fill: #1c7aea;
      }

      .cls-11 {
        fill: #371a45;
      }

      .cls-12 {
        fill: #39a1ff;
      }

      .cls-13 {
        opacity: .3;
      }

      .cls-14 {
        opacity: .35;
      }

      .cls-15 {
        opacity: .6;
      }

      .cls-16 {
        opacity: .5;
      }

      .cls-17 {
        opacity: .7;
      }

      .cls-18 {
        fill: #c3a4ff;
        opacity: 0;
      }
    </style>
  </defs>
  <rect class="cls-18" width="4000" height="4000"/>
  <g>
    <g>
      <path class="cls-7" d="M1792.64,2949.28c-5.93,9.72-11.82,19.22-17.62,28.53-70.34,113.2-130.32,196.82-233.98,234.48-4.11,1.51-8.26,2.92-12.51,4.24-1.74,.55-3.47,1.1-5.25,1.6-1.55,.5-3.15,.96-4.75,1.42-.46,.14-.91,.23-1.37,.37-1.87,.55-3.74,1.05-5.66,1.51-1.1,.32-2.24,.59-3.38,.87-2.1,.55-4.15,1.05-6.3,1.51-2.28,.55-4.61,1.05-6.98,1.55-4.56,.96-9.17,1.83-13.92,2.6-2.24,.41-4.52,.78-6.8,1.14-5.39,.82-10.86,1.55-16.48,2.19-2.83,.32-5.66,.59-8.58,.87-2.19,.23-4.38,.41-6.62,.59-1.46,.14-2.97,.23-4.47,.32-2.65,.23-5.34,.37-8.03,.5-3.24,.18-6.53,.37-9.86,.46-22.18,.82-45.87,.27-71.39-1.6-5.39-.41-10.82-.87-16.39-1.37-15.75-1.51-32.23-3.47-49.39-5.98-9.4-1.41-19.08-2.92-28.94-4.61-41.22-7.03-84.03,3.33-116.4,29.85-1.87,1.51-3.7,3.1-5.52,4.7-7.3,6.48-13.92,13.65-19.81,21.36-14.1,18.44-24.15,39.89-30.22,62.63-38.57,144.6-162.36,160.31-190.11,73.08-1.87-5.93-3.06-12.14-3.79-18.3-.64-5.16-1.1-10.27-1.55-15.25-10.91-130.14,46.97-206.04,116.85-263.24,9.08-7.44,18.58-14.29,28.39-20.54,38.94-24.97,83.17-40.81,129.36-46.28,118.95-14.01,214.67,1.6,295.96-18.53,37.93-9.36,72.67-26.47,105.21-57.97,77.83-24.1,152.32-40.49,213.89-27.07,.96,.18,1.87,.41,2.83,.68,1.83,.37,3.65,.82,5.43,1.32,.5,.14,.96,.23,1.42,.41,2.24,.59,4.47,1.23,6.71,1.96Z"/>
      <path class="cls-1" d="M1112.25,3276.37c-14.1,18.44-24.15,39.89-30.22,62.63-38.57,144.6-162.36,160.31-190.11,73.08-1.87-5.93-3.06-12.14-3.79-18.3-16.89-139.49,42.72-219.1,115.3-278.48,9.08-7.44,18.58-14.29,28.39-20.54-1.51,13.78-1.46,27.71,.18,41.49,26.34-.05,52.63,3.33,78.05,10.09-15.34,41.63-13.88,88.78,2.19,130.04Z"/>
      <g class="cls-15">
        <path class="cls-2" d="M916.26,3440.54c-1.87-5.93-3.06-12.14-3.79-18.3-.64-5.16-1.1-10.27-1.55-15.25-10.91-130.14,46.97-206.04,116.85-263.24,9.08-7.44,18.58-14.29,28.39-20.54,38.94-24.97,83.17-40.81,129.36-46.28,118.95-14.01,214.67,1.6,295.96-18.53,37.93-9.36,72.67-26.47,105.21-57.97,69.28-21.45,135.9-36.74,193.13-30.38,4.24-6.83,8.5-13.72,12.8-20.77-2.24-.73-4.47-1.37-6.71-1.96-.46-.18-.91-.27-1.42-.41-1.78-.5-3.61-.96-5.43-1.32-.96-.27-1.87-.5-2.83-.68-61.58-13.42-136.07,2.97-213.89,27.07-32.55,31.5-67.28,48.61-105.21,57.97-81.29,20.13-177.01,4.52-295.96,18.53-46.19,5.48-90.42,21.32-129.36,46.28-9.81,6.25-19.31,13.1-28.39,20.54-69.88,57.19-127.76,133.1-116.85,263.24,.46,4.98,.91,10.09,1.55,15.25,.73,6.16,1.92,12.37,3.79,18.3,6.04,18.98,16.63,33.07,29.89,42.04-2.11-4.22-4-8.71-5.55-13.58Z"/>
      </g>
      <g class="cls-13">
        <path class="cls-11" d="M1792.64,2949.28c-5.93,9.72-11.82,19.22-17.62,28.53-70.34,113.2-130.32,196.82-233.98,234.48-4.11,1.51-8.26,2.92-12.51,4.24-1.74,.55-3.47,1.1-5.25,1.6-1.55,.5-3.15,.96-4.75,1.42-.46,.14-.91,.23-1.37,.37-1.87,.55-3.74,1.05-5.66,1.51-1.1,.32-2.24,.59-3.38,.87-2.1,.55-4.15,1.05-6.3,1.51-2.28,.55-4.61,1.05-6.98,1.55-4.56,.96-9.17,1.83-13.92,2.6-2.24,.41-4.52,.78-6.8,1.14-5.39,.82-10.86,1.55-16.48,2.19-2.83,.32-5.66,.59-8.58,.87-2.19,.23-4.38,.41-6.62,.59-1.46,.14-2.97,.23-4.47,.32-2.65,.23-5.34,.37-8.03,.5-3.24,.18-6.53,.37-9.86,.46-22.18,.82-45.87,.27-71.39-1.6-5.39-.41-10.82-.87-16.39-1.37-15.75-1.51-32.23-3.47-49.39-5.98-9.4-1.41-19.08-2.92-28.94-4.61-41.22-7.03-84.03,3.33-116.4,29.85-1.87,1.51-3.7,3.1-5.52,4.7-7.3,6.48-13.92,13.65-19.81,21.36-14.1,18.44-24.15,39.89-30.22,62.63-38.57,144.6-162.36,160.31-190.11,73.08-1.87-5.93-3.06-12.14-3.79-18.3-.64-5.16-1.1-10.27-1.55-15.25,47.56,33.41,130.82-.46,161.22-114.39,6.07-22.73,16.11-44.18,30.22-62.63,5.89-7.71,12.51-14.88,19.81-21.36,1.83-1.6,3.65-3.2,5.52-4.7,32.36-26.52,75.18-36.88,116.4-29.85,77.19,13.19,140.73,16.75,194.5,11.78,.23-.09,.5-.18,.73-.27,25.33-9.45,52.26-22.14,63.77-46.6,10.64-22.55,4.61-50.71-11.18-70.02-3.15-3.83-6.66-7.35-10.41-10.54,37.93-9.36,72.67-26.47,105.21-57.97,77.83-24.1,152.32-40.49,213.89-27.07v.05c.96,.18,1.92,.41,2.83,.64,1.83,.37,3.65,.82,5.43,1.32,.5,.14,.96,.23,1.42,.41,2.24,.59,4.47,1.23,6.71,1.96Z"/>
      </g>
      <path class="cls-11" d="M960.42,3483.94c-40.03,0-72.82-25.24-85.9-66.35-2.08-6.53-3.55-13.6-4.53-21.63-19.03-157.39,55.14-240.22,121.89-294.8,47.78-39.07,105.58-63.55,167.15-70.82,54.75-6.46,105.27-6.76,149.84-7.02,97.9-.58,175.23-1.04,240.79-64.48,2.06-1.99,4.56-3.47,7.29-4.32,78.4-24.29,168.38-45.98,241.27-22.62,5.34,1.71,9.6,5.78,11.55,11.04,1.95,5.26,1.37,11.12-1.56,15.9-69.46,113.12-120.86,190.97-199.31,240.46-86.63,54.66-197.04,66.73-358.02,39.17-36.82-6.31-73.92,3.14-101.75,25.95-1.67,1.37-3.32,2.77-4.95,4.22-20.99,18.65-36.37,44.58-44.5,75.04-27.17,101.76-90.78,139.14-137.01,140.23-.75,.02-1.51,.03-2.26,.03Zm611.42-495.8c-75.35,70.59-162.29,71.1-262.75,71.69-45.75,.27-93.05,.55-145.78,6.77-54.65,6.45-105.93,28.17-148.31,62.83-59.5,48.66-125.64,122.42-108.75,262.14,.69,5.73,1.7,10.62,3.07,14.94,8.45,26.58,27.62,41.47,52.5,40.89,36.26-.86,82.04-36.17,102.59-113.14,9.98-37.39,29.18-69.52,55.51-92.91,1.98-1.77,4.02-3.51,6.08-5.19,36.02-29.51,83.78-41.78,131.06-33.7,312.74,53.58,392.45-55.73,506.88-241.33-58.29-9.68-128.77,7.57-192.1,27Z"/>
    </g>
    <g>
      <g>
        <path class="cls-5" d="M820.86,2657.32c-26.76-.69-51.47,12.63-64.44,34.73-11.52,19.62-16.49,50.73,1.54,72.45,18.7,22.52,56.1,27.68,85.96,8.04l21.42-4.03c-14.82-37.06-29.65-74.12-44.47-111.19Z"/>
        <g class="cls-13">
          <path class="cls-11" d="M820.86,2657.32c-26.76-.69-51.47,12.63-64.44,34.73-11.52,19.62-16.49,50.73,1.54,72.45,18.7,22.52,56.1,27.68,85.96,8.04l21.42-4.03c-14.82-37.06-29.65-74.12-44.47-111.19Z"/>
        </g>
        <path class="cls-11" d="M803.93,2802.87c-23.2,0-45.44-9.14-60.02-26.7-23.49-28.3-18.55-67.28-3.24-93.36,16.35-27.85,47.32-44.56,80.66-43.74,7.29,.19,13.77,4.7,16.48,11.47l44.48,111.19c2.03,5.07,1.68,10.78-.95,15.57-2.63,4.79-7.26,8.14-12.63,9.16l-18.03,3.39c-14.6,8.75-30.91,13.02-46.75,13.02Zm4.9-126.44c-15.46,2.72-28.94,11.68-36.68,24.87-7.15,12.17-13.09,35.95-.15,51.54,13.37,16.1,41.13,18.1,61.88,4.44,1.91-1.25,4.03-2.14,6.25-2.61l-31.3-78.25Z"/>
      </g>
      <g>
        <g>
          <g>
            <path class="cls-7" d="M1776.5,1924.16c-76.24,28.77-142.77,98.13-206.07,180.97l267.69-9.13,4.72-155.41-66.34-16.43Z"/>
            <path class="cls-6" d="M2848.25,2996.05c-.05,7.67-1.28,15.25-3.65,22.5-2.19,6.71-5.34,13.1-9.45,18.94-54.5,77.51-175.37,44.73-212.94-33.37l-1.28-6.94-198.47-1079.42c85.04,7.12,159.3,54.77,220.97,136.43,119.64,158.48,191.76,445.23,203.26,812.9,1.32,41.95,1.83,84.95,1.55,128.95Z"/>
            <g class="cls-15">
              <path class="cls-2" d="M2846.7,2867.1c-11.5-367.67-83.62-654.42-203.26-812.9-61.67-81.66-135.93-129.31-220.97-136.43l1.55,8.42c65.52,18.05,123.74,61.87,173.7,128.02,119.64,158.48,191.76,445.23,203.26,812.9,1.32,41.95,1.83,84.95,1.55,128.95-.05,7.67-1.28,15.25-3.65,22.5-2.19,6.71-5.34,13.1-9.45,18.94-16.75,23.83-39.79,37.2-64.74,42.06,41.01,7.39,83.72-4.04,110.46-42.06,4.11-5.84,7.26-12.23,9.45-18.94,2.37-7.26,3.61-14.83,3.65-22.5,.27-44-.23-87-1.55-128.95Z"/>
            </g>
            <path class="cls-1" d="M2848.25,2996.05c-.09,14.79-4.61,29.3-13.1,41.45-54.5,77.51-175.37,44.73-212.94-33.37l-1.28-6.94v-143.1c16.52-46.86,47.65-86.16,89.69-119.82l136.07,132.83c1.32,41.95,1.83,84.95,1.55,128.95Z"/>
            <path class="cls-11" d="M2747.94,3099.99c-3.94,0-7.93-.17-11.96-.5-54.91-4.53-107.24-39.67-130.22-87.45-.7-1.46-1.21-3.01-1.5-4.6l-1.28-6.93-198.47-1079.43c-1.03-5.59,.61-11.35,4.43-15.56s9.4-6.43,15.05-5.93c128.7,10.8,237.48,109.17,314.58,284.47,73.96,168.15,117.66,404.16,126.37,682.49,1.31,41.59,1.84,85.21,1.56,129.63h0c-.12,18.72-5.79,36.63-16.39,51.8-23.54,33.47-60.3,52.03-102.18,52.03Zm-108.23-101.67c18.07,35.43,57.65,61.35,99.27,64.79,19.71,1.6,56.48-.9,81.23-36.1,6.32-9.03,9.71-19.79,9.78-31.05,.27-43.97-.25-87.12-1.55-128.26-16.77-535.83-162.88-887.09-383.47-928.46l194.73,1059.1Zm208.54-2.26h0Z"/>
            <path class="cls-11" d="M2765.42,3072.07l7.7-132.19c.54-8.35,12.83-8.69,13.81-.38,0,0,14.99,131.57,14.99,131.57,1.15,10.06-6.08,19.14-16.13,20.28-11.17,1.38-21.12-8.07-20.37-19.27h0Z"/>
            <path class="cls-11" d="M2696.02,3073.71l7.7-107.55c.63-8.21,12.65-8.59,13.81-.47,0,0,14.99,106.77,14.99,106.77,1.41,10.04-5.59,19.32-15.63,20.73-11.41,1.75-21.81-8.02-20.87-19.49h0Z"/>
            <path class="cls-11" d="M2626.93,2849.17c11.37,71.09,44.2,139.21,81.57,31.61,1.35-3.81,2.54-8.2,3.77-12.09,6.01-22.71,31.88-34.7,52.73-24.14,3.35,1.55,1.81,6.76-1.85,6.2-19.57-2.9-33.29,7.98-35.32,26.31-2.93,14.69-7.13,28.78-13.43,42.8-22.71,52.37-67.54,55.55-93.58,2.95-5.74-11.2-9.84-22.71-13.1-34.27-3.28-11.56-5.82-23.17-7.81-34.82-2.57-17.92,23.58-22.34,27.01-4.54h0Z"/>
            <path class="cls-11" d="M2846.87,2883.7c-2.94,0-5.89-1.13-8.12-3.39l-129.12-130.79c-29.88,24.39-56.27,58.49-78.54,101.51-2.9,5.6-9.79,7.78-15.38,4.89-5.6-2.9-7.79-9.79-4.89-15.38,25.79-49.83,57.07-88.66,92.98-115.42,4.56-3.41,10.94-2.92,14.94,1.13l136.25,138.01c4.43,4.49,4.38,11.71-.1,16.14-2.22,2.2-5.12,3.29-8.02,3.29Z"/>
            <g class="cls-13">
              <path class="cls-11" d="M2844.6,3018.56c-2.19,6.71-5.34,13.1-9.45,18.94-54.5,77.51-175.37,44.73-212.94-33.37l-1.28-6.94-198.47-1079.42c85.04,7.12,159.3,54.77,220.97,136.43-3.61,5.43-6.66,11.14-9.13,17.03-18.12,43.32-12.83,92.39-7.26,139.04,12.51,104.16,24.97,208.33,37.48,312.49,11.46,95.44,22.91,191.39,19.35,287.47-1.32,36.38-4.79,73.08,1.05,109.05,5.89,35.92,22.59,71.98,53.09,91.88,30.95,20.22,71.75,20.45,106.58,7.39Z"/>
            </g>
            <path class="cls-11" d="M1570.42,2123.39c-6.81,0-13.09-3.8-16.22-9.89-3.24-6.27-2.57-13.85,1.72-19.45,78.83-103.17,144.87-160.83,214.13-186.97,3.46-1.3,7.25-1.53,10.83-.64l66.34,16.43c8.35,2.07,14.12,9.68,13.86,18.28l-4.72,155.41c-.29,9.62-8.01,17.36-17.63,17.69l-267.69,9.13c-.21,0-.42,0-.62,0Zm207.32-180.11c-53.81,21.79-106.86,66.42-168.64,142.26l211.29-7.21,3.75-123.56-46.4-11.49Z"/>
          </g>
          <g>
            <path class="cls-6" d="M2682.24,3571.09c-5.29,37.38-38.02,64.73-75.77,65.18-102.7,1.23-205.45,2.46-308.2,3.7-47.29,.59-90.33-28.89-105.44-73.76-6.94-20.68-9.68-44.5-8.49-70.43-2.24-157.75-12.05-302.63-36.2-423.36-.68-3.42-1.37-6.85-2.1-10.27-1.37-6.66-2.83-13.28-4.29-19.76h-2.15c-1.23,5.43-2.42,10.91-3.65,16.43-17.66,83.53-28.16,179.11-33.87,282.91-2.74,49.62-4.34,101.1-5.07,154.05,1.19,25.93-1.51,49.75-8.49,70.43-15.11,44.87-58.11,74.36-105.44,73.76-73.44-.87-146.84-1.78-220.24-2.65-29.3-.37-58.65-.68-87.96-1.05-37.7-.46-70.43-27.8-75.73-65.18-1.92-13.37-1.28-27.11,2.1-40.53,13.24-52.99,62.17-72.58,66.69-74.31-1.1-31.68-2.1-63.04-2.97-93.98-5.34-183.27-7.21-353.8-4.66-509.9,2.92-180.57,11.82-341.88,28.25-481.51,10.32-87.73,23.6-166.93,40.21-236.81l62.76-228.91,4.79-17.57,25.15,.87,609.73,21.04c59.66,48.66,98.14,126.16,121.33,224.58,1.14,4.84,2.28,9.72,3.38,14.65,2.65,11.46,5.16,23.14,7.58,35.1,1.6,7.76,3.15,15.61,4.66,23.55l.05,.14c26.15,137.76,41.67,305.14,48.93,498.31,1.55,40.53,2.69,82.21,3.47,125.02,.59,28.98,1,58.52,1.23,88.51,.5,54.64,.41,110.92-.09,168.8-1.05,116.49-3.93,239.36-8.35,368.13,4.56,1.73,53.45,21.32,66.73,74.31,.27,1.19,.55,2.37,.82,3.56,2.6,12.28,2.97,24.79,1.28,36.97Z"/>
            <path class="cls-1" d="M2097.02,3495.78c1.19,25.93-1.51,49.75-8.49,70.43-15.11,44.87-58.11,74.36-105.44,73.76-102.75-1.23-205.45-2.46-308.2-3.7-37.7-.46-70.43-27.8-75.73-65.18-1.92-13.37-1.28-27.11,2.1-40.53,13.24-52.99,62.17-72.58,66.69-74.31-1.1-31.68-2.1-63.04-2.97-93.98,12-17.12,25.01-33.5,39.03-49.02,3.47-3.83,7.53-7.9,12.69-8.12,2.83-.14,5.57,.96,8.22,2.1,36.88,15.88,68.1,44.64,87,80.15,29.12-24.15,58.24-48.34,87.37-72.48,1.69-1.37,3.51-2.83,5.71-3.01,2.28-.14,4.34,1.14,6.25,2.37,29.62,19.63,55.87,44.37,77.23,72.8,11.55-18.94,25.79-36.2,42.22-51.08,2.47-2.24,5.07-4.47,8.22-5.39,3.61-1.1,7.49-.37,11.14,.32,12.28,2.42,24.56,4.79,36.79,7.21,5.11,1,10.32,2.01,15.25,3.61-2.74,49.62-4.34,101.1-5.07,154.05Z"/>
            <path class="cls-1" d="M2182.89,3495.78c-1.19,25.93,1.51,49.75,8.49,70.43,15.11,44.87,58.11,74.36,105.44,73.76,102.75-1.23,205.45-2.46,308.2-3.7,37.7-.46,70.43-27.8,75.73-65.18,1.92-13.37,1.28-27.11-2.1-40.53-13.24-52.99-62.17-72.58-66.69-74.31,1.1-31.68,2.1-63.04,2.97-93.98-12-17.12-25.01-33.5-39.03-49.02-3.47-3.83-7.53-7.9-12.69-8.12-2.83-.14-5.57,.96-8.22,2.1-36.88,15.88-68.1,44.64-87,80.15-29.12-24.15-58.24-48.34-87.37-72.48-1.69-1.37-3.51-2.83-5.71-3.01-2.28-.14-4.34,1.14-6.25,2.37-29.62,19.63-55.87,44.37-77.23,72.8-11.55-18.94-25.79-36.2-42.22-51.08-2.47-2.24-5.07-4.47-8.22-5.39-3.61-1.1-7.49-.37-11.14,.32-12.28,2.42-24.56,4.79-36.79,7.21-5.11,1-10.32,2.01-15.25,3.61,2.74,49.62,4.34,101.1,5.07,154.05Z"/>
            <path class="cls-11" d="M1746.58,2138.27c-48.68,214.09-60.52,435.77-66.73,655.12-5.4,220.65-.92,441.58,6.35,662.22,.27,7.92-4.55,14.84-11.51,17.6-4.36,1.68-9.52,4.39-14.17,7.27-22.91,13.87-39.86,37.04-43.34,63.77-6.52,38.37,18.29,73.25,58.69,73.78,85.2,.97,216.88,2.65,301.79,3.64,16.33,.65,32.84-2.11,47.56-9.33,61.49-31.38,52.88-93.32,54.17-151.54,3.66-141.65,11.43-283.02,42.43-422.46,4.01-19.08,33.93-18.84,37.74,0,31,139.43,38.98,280.81,42.46,422.46,1.22,58.26-7.42,120.23,54.07,151.67,14.73,7.24,31.28,10.05,47.63,9.4,82.77-.8,213.93-2.46,297.01-3.29,30.73,1.89,60.26-19.53,64.09-50.53,6.51-40.75-20.36-80.73-57.85-95.53-7.06-2.8-11.28-9.71-11.05-16.89,10.17-303.47,15.47-607.11-2.24-910.17-8.44-137.37-22.19-274.55-48.1-409.76-.83-3.93,1.74-7.8,5.7-8.54,3.72-.71,7.33,1.62,8.29,5.21,14.28,53.7,26.27,108.1,35.03,162.96,18.39,109.47,27.89,220.34,34.49,331.07,15.87,276.57,10.42,553.78,1.87,830.44,0,0-11.27-16.98-11.27-16.98,48.8,19.15,84.32,68.71,81.15,121.8-.74,52.98-47.19,94.73-99.66,92.45-83.17,.99-214.19,2.86-297,3.87-6.69,.16-14.59,.04-21.32-.76-83.12-10.67-120.65-79.68-116.87-158.17-2.39-151.1-9.51-305.32-42.01-452.61-.05,0,17.97,14.26,17.75,14.2h-2.08l17.8-14.2c-27.45,122.74-36.24,250.71-40.5,377-.46,21.94-1.71,54.03-1.51,75.61,.9,27.62-2.44,56.96-13.38,82.86-18.57,43.37-62.24,73.17-109.02,76.06-24.43,.75-86.52-.96-111.6-.94-26.43-.46-167.74-1.92-191.61-2.31-14.24-.12-29.57,.03-43.23-4.76-65.64-20.55-83.22-96.78-51.32-153.24,14.97-26.45,38.25-45.93,66.2-57.54,0,0-11.75,17.69-11.75,17.69-10.41-332.15-16.88-665.14,11.37-996.74,9.9-110.64,24.87-221.21,49.97-330.31,2.26-9.83,12.06-15.96,21.89-13.7,9.93,2.28,16.07,12.27,13.64,22.15h0Z"/>
            <path class="cls-11" d="M2606.59,3473.17c-36.62-18.47-82.85-16.57-123.55-9.42-9.36,1.67-12.94-11.86-3.97-15.01,45.05-15.19,93.42-24.41,141.19-9.42,24.99,8.8,10.48,44.89-13.67,33.86h0Z"/>
            <path class="cls-11" d="M1657.16,3439.3c47.76-14.99,96.15-5.76,141.19,9.42,4.06,1.41,6.22,5.84,4.81,9.91-1.28,3.69-5.06,5.81-8.79,5.11-40.68-7.15-86.94-9.04-123.55,9.42-24,11.1-38.7-25.13-13.67-33.86h0Z"/>
            <path class="cls-11" d="M1932.87,2971.89c104.94,48.63,215.69,65.28,329.26,41.64,37.12-7.24,73.84-17.89,110.77-29.73,3.55-1.16,7.38,.79,8.52,4.35,.98,3.04-.32,6.26-2.95,7.84-102.6,61.87-232.66,84.06-347.94,45.91-38.43-12.5-74.65-30.96-106.68-54.54-4.01-2.95-4.86-8.58-1.91-12.59,2.56-3.48,7.16-4.58,10.94-2.88h0Z"/>
            <path class="cls-11" d="M1702.38,3634.78c1.55-4.88-.06-9.7-1.38-14.41-1.22-4.36-1.68-8.51-1.84-13.04-.39-10.99-1.16-22.57,1.49-33.33,2.58-10.45,9.1-18.62,14.95-27.41,3.38-5.08,6.08-10.43,8.13-16.14,1.68-4.69,4.22-8.8,3.64-13.99-.1-.91-.63-1.45-1.55-1.55-5.77-.65-10.37,2.64-15.33,5.05-6.14,2.98-11.49,7.92-15.86,13.1-9.01,10.69-16.51,23.44-19.2,37.28-2.58,13.27-2.42,27.07-1.25,40.49,.95,10.95,4.37,31.85,19.7,30.42,4.06-.38,7.25-2.5,8.51-6.48h0Z"/>
            <path class="cls-11" d="M1813.63,3630.47c1.74-8.97-2.6-19.1-3.55-28.13-1.01-9.58-.51-18.79,1.98-28.1,2.17-8.12,5.7-16.02,9.04-23.72,1.79-4.13,3.48-7.99,5.9-11.79,2.13-3.35,5.31-6.82,6.16-10.74,.31-1.42-.62-2.5-2.01-2.64-4.34-.44-9.27,2.47-12.85,4.68-4.39,2.7-9.07,5.85-12.85,9.38-8.34,7.77-13.31,17.62-16.44,28.47-3.19,11.08-3.81,23.06-2.37,34.46,1.33,10.55,5.47,27.47,16.01,32.6,4,1.95,10.02,.61,11-4.48h0Z"/>
            <path class="cls-11" d="M2597.42,3641.26c15.01,1.4,18.58-18.73,19.62-29.54,1.31-13.66,1.45-27.86-1.18-41.37-2.62-13.5-9.83-25.97-18.53-36.48-4.25-5.13-9.4-10.29-15.37-13.43-5.06-2.66-10.56-6.21-16.49-5.54-.91,.1-1.45,.63-1.55,1.55-.57,5.05,1.82,8.51,3.48,13.05,2.09,5.69,4.29,11.1,7.7,16.21,6.04,9.05,12.88,17.52,15.54,28.28,2.59,10.5,1.87,21.74,1.52,32.46-.14,4.48-.42,8.77-1.63,13.09-1.39,4.96-3.26,10.07-1.62,15.23,1.28,4.02,4.47,6.1,8.51,6.48h0Z"/>
            <path class="cls-11" d="M2488.65,3634.94c10.52-5.13,14.68-22.05,16.01-32.6,1.43-11.4,.82-23.38-2.37-34.46-3.13-10.86-8.11-20.68-16.44-28.47-3.77-3.53-8.47-6.71-12.85-9.38-3.59-2.18-8.52-5.11-12.85-4.68-1.39,.14-2.32,1.22-2.01,2.64,.81,3.71,3.75,6.92,5.73,10.11,2.4,3.87,4.13,7.56,5.99,11.7,3.54,7.87,7.13,16.08,9.37,24.43,2.41,8.99,3.05,17.98,2.08,27.25-.46,4.41-1.16,8.73-2.02,13.09-1.05,5.31-2.67,10.47-1.62,15.89,.99,5.08,7,6.43,11,4.48h0Z"/>
            <ellipse class="cls-1" cx="2163.82" cy="2470.16" rx="367.45" ry="438.33"/>
            <g class="cls-13">
              <path class="cls-11" d="M2681.02,3534.12c-9.65,7.49-19.83,14.2-30.77,19.63-32.55,16.11-69.54,19.95-105.69,20.95-56.69,1.6-117.74-4.88-161.1-42.4-11.25-9.72-21.12-21.59-26.55-35.65-4.31-11.27-5.6-23.51-6.76-35.56-9.6-99-14.05-198.56-13.25-298.06,.13-16.34,.67-33.69,9.2-47.52,5.56-9.04,14.1-15.75,22.81-21.64,74.66-50.57,177.46-51.67,254.43-5.75,.49-57.88,.58-114.16,.09-168.8-.77-7.43-1.53-14.86-2.3-22.29,.15-3.16,.22-6.32,.26-9.43,.27-18.9,.58-37.84,.84-56.78,.71-46.24,1.42-92.48,2.13-138.72-1.69,4.66-3.51,9.22-5.51,13.69-36.97,82.66-98.86,129.69-127.17,150.04-10.3,7.4-45.89,32.23-98.23,52.52-37.71,10.16-76.89,14.88-115.94,13.74-46.53-1.37-94.37-11.62-131.66-39.49-37.29-27.87-61.7-76.03-51.97-121.55,10.07-47.13,51.92-80.03,92.68-105.74,37.97-23.95,83.69-46.07,126.16-31.52l3.27,3.6c11.27-17.97,3.62-43.13-12.24-57.22-15.86-14.09-37.65-19.31-58.72-21.8-137.83-16.29-271.27,62.86-410.02,59.36-12.48,53.8-20.22,108.7-23.23,163.85-43.31,24.14-85.09,51.13-125.01,80.78-2.49,156.11-.67,326.64,4.54,509.9,.85,30.95,1.82,62.31,2.89,93.98-4.4,1.73-52.07,21.32-64.96,74.31-3.29,13.42-3.91,27.16-2.05,40.53,5.16,37.38,37.04,64.73,73.77,65.18,28.55,.37,57.14,.68,85.68,1.05-5.96-15.93-7.83-33.46-4.76-50.21,6.09-33.41,31.53-62.31,63.32-71.94,27.57-8.35,63.9-6.76,76.52-33.32,4.85-10.09,4.45-21.91,4-33.18-2.85-72.3-25.26-250.19-15.36-349.33,3.4-6.81,7.6-13.21,12.62-18.95,.12-.14,.25-.28,.37-.42,17.98-20.31,47.18-26.04,72.36-15.95,18.57,7.44,34.59,10.61,43.27,12.33,51.32,10.15,104.52,1.41,104.52,1.42,0,0,8.48-16.22,16.41-15.61,1.32,.1,2.34,.65,2.79,.93-.24,3.12-.52,6.22-.75,9.34,23.52,120.73,33.08,265.61,35.26,423.36-1.16,25.93,1.51,49.75,8.27,70.43,14.72,44.87,56.65,74.36,102.71,73.76,100.09-1.23,200.18-2.46,300.23-3.7,36.77-.46,68.65-27.8,73.81-65.18,1.65-12.19,1.29-24.69-1.25-36.97Z"/>
            </g>
            <g class="cls-13">
              <path class="cls-11" d="M2552.56,2134.04c1.14,4.84,2.28,9.72,3.38,14.65-23.87-41.45-66.19-75.36-109.73-97.86-126.21-65.09-281.04-71.89-412.41-18.08-18.26,7.44-36.29,16.2-50.94,29.4-36.97,33.23-45.28,90.56-29.67,137.76,15.56,47.2,51.26,85.36,90.88,115.39-117.45,24.69-236.17,43.23-355.49,55.55-7.07,.73-14.1,1.42-21.18,2.1-12.14-97.36-22.87-194.91-32.18-292.59-1.1-11.87-2.15-24.15,1.96-35.28,2.83-7.71,7.94-14.33,13.1-20.68,39.44-48.16,87.78-87.68,141.27-119.27,9.81-5.89,19.81-11.46,29.94-16.71l609.73,21.04c59.66,48.66,98.14,126.16,121.33,224.58Z"/>
            </g>
            <g class="cls-13">
              <path class="cls-11" d="M2575.57,2227.11l-7.35-19.63-.05-.14-5.71-15.34c.27-2.74,.64-5.48,1.05-8.22,.41-2.88,.87-5.71,1.28-8.58,.32-2.19,.64-4.43,.91-6.62,7.44,18.35,11.14,37.98,9.86,58.52Z"/>
            </g>
          </g>
          <g>
            <g>
              <path class="cls-2" d="M2244.95,2394.68s-59.67-5.3-67.36,50.91c-7.69,56.22,53.51,73.48,53.51,73.48,0,0,213.97,46.72,368.88,.16,65.47-50.63,4.45-117.7,4.45-117.7,0,0-183.57,32.13-359.48-6.86Z"/>
              <g class="cls-13">
                <path class="cls-11" d="M2231.11,2519.07s213.95,46.71,368.85,.16c29.16-22.56,33.23-48.38,28.77-70.07-4.59,6.66-10.8,13.19-18.97,19.51-154.9,46.55-368.9-.16-368.9-.16,0,0-44.12-12.46-52.69-50.6-5.14,6.96-8.98,16.02-10.58,27.7-7.7,56.19,53.51,73.46,53.51,73.46Z"/>
              </g>
              <path class="cls-11" d="M2435.26,2551.33c-107.53,0-200.73-19.95-206.57-21.22l-.66-.17c-24.44-6.89-68.77-33.71-61.64-85.88,7.24-52.91,55.2-62.79,79.56-60.63l1.44,.22c171.58,38.02,353.28,7.08,355.09,6.76l6.12-1.07,4.18,4.59c1.31,1.44,32.05,35.74,28.5,76.41-1.94,22.22-13.51,41.67-34.4,57.83l-1.66,1.28-2,.6c-53.1,15.96-112.45,21.28-167.98,21.28Zm-201.37-43.22c10.13,2.14,213.71,44.16,360.8,.91,14.64-11.82,22.74-25.44,24.09-40.53,2.1-23.45-12.07-45.5-19.02-54.78-34.69,5.23-199.38,26.79-356.43-7.82-7.43-.49-48.73-1.12-54.53,41.24-6.06,44.26,40.39,59.56,45.1,60.99Z"/>
            </g>
            <path class="cls-2" d="M2385.74,2673.25l-428.78-3.11c-50.75-.35-92-41.39-91.62-91.24l1.76-223.81c.34-43.63,32.48-80.05,74.58-88.19,5.96-1.19,12.13-1.74,18.46-1.7l428.72,3.1c50.81,.36,92.06,41.4,91.62,91.24l-1.35,177.26-.34,46.55c-.38,49.84-42.29,90.24-93.04,89.89Z"/>
            <path class="cls-2" d="M2385.74,2673.25l-428.78-3.11c-50.75-.35-92-41.39-91.62-91.24l1.76-223.81c.34-43.63,32.48-80.05,74.58-88.19,5.96-1.19,12.13-1.74,18.46-1.7l428.72,3.1c50.81,.36,92.06,41.4,91.62,91.24l-1.35,177.26-.34,46.55c-.38,49.84-42.29,90.24-93.04,89.89Z"/>
            <path class="cls-2" d="M2385.74,2673.25l-428.78-3.11c-50.75-.35-92-41.39-91.62-91.24l1.76-223.81c.34-43.63,32.48-80.05,74.58-88.19,5.96-1.19,12.13-1.74,18.46-1.7l428.72,3.1c50.81,.36,92.06,41.4,91.62,91.24l-1.35,177.26-.34,46.55c-.38,49.84-42.29,90.24-93.04,89.89Z"/>
            <g class="cls-13">
              <path class="cls-11" d="M2386.37,2673.28l-428.78-3.11c-50.75-.35-92-41.39-91.62-91.24l1.76-223.81c.34-43.63,32.48-80.05,74.58-88.19,24.22,16.04,39.61,26.3,39.61,26.3,19.48,179.8,70.94,269.77,298.35,275.06,98.16,2.26,160.25-11.98,199.5-31.45l-.34,46.55c-.38,49.84-42.29,90.24-93.04,89.89Z"/>
            </g>
            <path class="cls-11" d="M2405.02,2688.46c-.22,0-.43,0-.65,0l-466.16-3.36c-23.62-.17-45.81-9.59-62.48-26.51-16.67-16.92-25.75-39.25-25.57-62.87l2-257.72c.38-48.66,40.1-88,88.67-88,.22,0,.43,0,.65,0l466.16,3.37c23.62,.17,45.81,9.58,62.48,26.5,16.67,16.92,25.75,39.25,25.57,62.87l-2,257.72c-.38,48.66-40.1,88-88.68,88Zm-466.6-33.5l466.16,3.36h.43c32.08,0,58.3-25.97,58.55-58.1l2-257.72c.12-15.57-5.88-30.31-16.9-41.49-11.02-11.19-25.66-17.41-41.24-17.52l-466.16-3.37h-.43c-32.08,0-58.3,25.98-58.55,58.11l-2,257.72c-.12,15.57,5.88,30.3,16.9,41.49,11.02,11.19,25.66,17.41,41.24,17.52h0Z"/>
            <path class="cls-2" d="M2234.09,2670.6l-.87,1.59-276.29-2.02c-37.2-.31-69.25-22.37-83.56-53.86-5.25-11.4-8.12-24.05-7.98-37.38l.73-99.43,.24-32.82,.49-57.61,.25-33.95c.4-49.85,42.25-90.25,93.01-89.9l92.64,.71c-42.76,7.58-75.55,44.28-75.93,88.32l-.54,66.44-.39,54.48-.84,103.01c-.34,49.73,40.9,90.8,91.64,91.21l167.4,1.22Z"/>
            <g class="cls-13">
              <path class="cls-11" d="M2277.85,2670.89l-.87,1.59-320.06-2.31c-37.2-.31-69.25-22.37-83.56-53.86-5.25-11.4-8.12-24.05-7.98-37.38l.73-99.43,.24-32.82,.49-57.61c18.6-2.38,43.22,.31,56.42,27.34,18.29,37.45,38.08,25.16,53.02,4.26l-.39,54.48-.84,103.01c-.34,49.73,40.9,90.8,91.64,91.21l211.17,1.52Z"/>
            </g>
            <path class="cls-11" d="M2360.1,2688.22l-15.15-.19-388.11-2.81c-28.9-.2-55.97-11.63-76.23-32.19-19.78-20.08-30.54-46.44-30.31-74.22l1.74-223.84c.42-57.97,48.55-104.86,107.45-104.86,.25,0,.5,0,.75,0l92.62,.68,2.53,29.89c-36.51,6.51-63.21,37.5-63.49,73.7l-1.74,223.84c-.17,19.74,7.52,38.5,21.65,52.85,14.6,14.82,34.12,23.06,54.97,23.2l266.67,3.47c1.95,.02,3.86,.05,5.71,.11l6.09,.04v.36c8.87,1.01,15.18,4.17,15.04,14.89l-.19,15.06Zm-400.61-407.97c-42.38,0-77.02,33.51-77.31,74.95l-1.74,223.86c-.17,19.73,7.52,38.49,21.65,52.84,14.6,14.82,34.12,23.06,54.97,23.2l36.52,.26c-1.09-1.02-2.17-2.07-3.23-3.14-19.78-20.08-30.54-46.45-30.31-74.23l1.74-223.83c.22-28.45,12.02-54.6,31.31-73.67l-33.06-.24h-.54Zm-94.12,298.68h0Z"/>
            <path class="cls-8" d="M2145.01,2469.23c-.11,8.28-12.89,74.93-12.89,74.93,0,0-21.58-.28-48.07-.62-33.1-.43-59.48-34.39-58.91-75.86,.56-41.47,27.86-74.74,60.96-74.32,22.34,.29,48.07,.62,48.07,.62,0,0,11.02,61.76,10.84,75.24Z"/>
            <g>
              <path class="cls-10" d="M2143.55,2468.73c-.11,7.41-12.36,67.11-12.36,67.11,0,0-20.7-.25-46.12-.55-31.76-.38-57.06-30.8-56.52-67.93,.54-37.14,26.73-66.93,58.48-66.55,21.43,.26,46.12,.55,46.12,.55,0,0,10.58,55.31,10.4,67.38Z"/>
              <path class="cls-11" d="M2117.33,2544.79h-.33l-32.03-.39c-16.14-.19-31.6-7.05-43.54-19.32-14.3-14.68-22.32-35.78-21.99-57.87,.61-42.1,30.93-76.02,67.72-75.55l32.2,.39c12.45,.15,23.02,8.68,25.13,20.28,5.55,30.49,8.31,49.51,8.21,56.53-.02,1.69-.1,6.83-9.97,56.08-2.31,11.55-12.96,19.85-25.38,19.85Zm-30.89-134.88c-26.47,0-48.29,25.7-48.75,57.56-.25,17.28,5.88,33.64,16.82,44.87,8.54,8.76,19.43,13.67,30.68,13.8l32.03,.39s.07,0,.11,0c3.68,0,6.89-2.21,7.49-5.18,8.98-44.79,9.59-51.81,9.62-52.77,.08-5.52-2.88-25.33-7.91-52.99-.54-2.97-3.72-5.24-7.39-5.29l-32.2-.39c-.16,0-.33,0-.49,0Zm57.12,58.81h0Z"/>
              <ellipse class="cls-8" cx="2132.17" cy="2468.59" rx="67.25" ry="57.5" transform="translate(-381.96 4546.86) rotate(-88.76)"/>
              <g class="cls-17">
                <path class="cls-2" d="M2074.68,2467.92c-.04,2.8,.06,5.52,.31,8.21,6.53-29.4,29.52-51.03,56.62-50.72,29.41,.35,53.22,26.42,56.21,59.72,1.16-5.07,1.78-10.39,1.86-15.86,.54-37.14-24.75-67.53-56.52-67.93-31.77-.4-57.93,29.43-58.47,66.57Z"/>
              </g>
              <path class="cls-10" d="M2074.68,2467.92c-.54,37.1,24.75,67.53,56.52,67.93,31.77,.35,57.93-29.43,58.47-66.57,.1-5.85-.46-11.57-1.59-16.97-8.75,24.95-29.85,42.4-54.21,42.1-26.72-.29-48.92-21.9-54.93-50.91-2.62,7.54-4.12,15.78-4.26,24.43Z"/>
              <path class="cls-11" d="M2131.79,2544.97c-.24,0-.47,0-.71,0-16.14-.19-31.6-7.05-43.54-19.32-14.3-14.68-22.32-35.78-21.99-57.87,.62-42.1,30.9-75.82,67.72-75.55,16.14,.2,31.6,7.06,43.54,19.33,14.3,14.68,22.32,35.78,21.99,57.87h0c-.61,41.83-30.61,75.55-67.01,75.55Zm.76-134.49c-26.46,0-48.29,25.7-48.75,57.56-.25,17.28,5.88,33.64,16.82,44.87,8.54,8.76,19.43,13.67,30.68,13.8,.16,0,.33,0,.49,0,26.47,0,48.29-25.7,48.75-57.56l9.13,.13-9.13-.13c.25-17.28-5.88-33.64-16.82-44.87-8.54-8.77-19.43-13.67-30.68-13.81h-.49Z"/>
            </g>
            <path class="cls-11" d="M2252.46,2681.96c-.12,0-.24,0-.37,0-6.24-.2-11.13-5.41-10.93-11.66l3.61-113.19c.96-30.14,17.12-57.58,43.22-73.41,20.02-12.14,32.12-33.13,32.38-56.16l1.8-159.62c.07-6.24,5.22-11.08,11.42-11.17,6.24,.07,11.24,5.19,11.17,11.43l-1.8,159.62c-.35,30.89-16.52,59.01-43.26,75.22-19.54,11.86-31.64,32.35-32.36,54.82l-3.61,113.19c-.19,6.11-5.21,10.94-11.28,10.94Z"/>
          </g>
          <g>
            <g>
              <g>
                <path class="cls-4" d="M1856.28,734.46c-15.17,0-29.73-8.52-36.72-23.12l-120.82-252.3c-9.7-20.26-1.14-44.55,19.12-54.25,20.26-9.7,44.55-1.15,54.25,19.12l120.82,252.3c9.7,20.26,1.14,44.55-19.12,54.25-5.67,2.71-11.65,4-17.54,4Z"/>
                <g class="cls-13">
                  <path class="cls-11" d="M1855.44,692.2l-120.82-252.3c-6.23-13.01-4.9-27.66,2.19-39.06-6.34-.22-12.83,1.02-18.95,3.95-20.26,9.7-28.82,33.99-19.12,54.25l120.82,252.3c6.99,14.6,21.55,23.12,36.72,23.12,5.89,0,11.87-1.29,17.54-4,7.27-3.48,13-8.86,16.96-15.24-14.66-.5-28.56-8.87-35.33-23.02Z"/>
                </g>
                <path class="cls-11" d="M1856.28,747.98c-20.75,0-39.95-12.09-48.91-30.8l-120.82-252.3c-12.91-26.95-1.48-59.38,25.48-72.29,13.06-6.25,27.77-7.04,41.42-2.24,13.66,4.81,24.62,14.66,30.87,27.71l120.82,252.3c12.91,26.95,1.48,59.38-25.48,72.29-7.38,3.53-15.24,5.32-23.38,5.32Zm-120.86-333.67c-4,0-7.99,.9-11.71,2.68-13.5,6.47-19.23,22.71-12.76,36.22l120.82,252.3c4.49,9.38,14.11,15.43,24.52,15.43,4.06,0,8-.9,11.7-2.67,13.5-6.47,19.23-22.71,12.76-36.22l-120.82-252.3c-3.13-6.54-8.63-11.47-15.47-13.88-2.95-1.04-6-1.56-9.04-1.56Z"/>
              </g>
              <g>
                <ellipse class="cls-12" cx="1963.65" cy="912.43" rx="368.41" ry="339.03" transform="translate(-201.56 894.29) rotate(-24.44)"/>
                <g class="cls-15">
                  <path class="cls-2" d="M2299.05,759.98c-77.48-170.46-290.45-240.4-475.68-156.21-47.18,21.45-87.97,50.85-121.35,85.55,26.72-22.31,56.98-41.6,90.51-56.84,185.23-84.19,398.2-14.26,475.68,156.21,57.74,127.04,23.89,274.03-73.76,375.54,120.89-100.95,168.05-264.65,104.6-404.26Z"/>
                </g>
                <path class="cls-11" d="M1941.54,1270.16c-138.98,0-268.18-73.38-325.59-199.69-80.44-176.98,10.1-391.86,201.83-479,191.72-87.13,413.14-14.03,493.59,162.92h0c39.06,85.93,39.45,183.15,1.11,273.76-38.18,90.22-110.25,163.11-202.93,205.24-54.9,24.95-112.24,36.77-168,36.77Zm44.32-688.43c-52.04,0-105.58,11.04-156.89,34.36-178.15,80.97-262.66,279.78-188.39,443.19,52.88,116.34,172.23,183.84,300.88,183.85,52.04,0,105.58-11.04,156.89-34.36,86.49-39.31,153.69-107.2,189.21-191.15,35.36-83.56,35.07-173.07-.82-252.03-52.88-116.34-172.23-183.85-300.88-183.85Z"/>
                <path class="cls-3" d="M1856.11,1253.62c-145.58-158.39-172.96-442.26-85.07-592.96,21.25-36.44,61.22-57.03,103.3-54.07,190.88,13.42,323.93,241.8,344.78,535.25l-363.01,111.79Z"/>
                <path class="cls-11" d="M1856.11,1267.98c-3.88,0-7.74-1.56-10.57-4.64-154.98-168.63-173.7-461.08-86.9-609.91,23.97-41.1,68.69-64.53,116.71-61.16,191.83,13.49,335.74,233.93,358.09,548.55,.56,7.91-5.4,14.78-13.3,15.34-7.91,.56-14.78-5.4-15.34-13.3-10.12-142.49-47.94-272.48-106.48-366.04-59.99-95.86-137.79-149.78-224.99-155.91-37.06-2.62-71.47,15.4-89.89,46.98-81.77,140.19-63.55,416.32,83.23,576.02,5.37,5.84,4.98,14.92-.85,20.28-2.76,2.54-6.24,3.79-9.71,3.79Z"/>
                <g class="cls-13">
                  <path class="cls-11" d="M1802.54,969.49c-59.72-131.39-21.44-284.1,84.04-385.78-8.89,3.3-17.74,6.84-26.52,10.83-185.23,84.19-272.59,290.63-195.11,461.09,77.48,170.46,290.45,240.4,475.68,156.21,42.46-19.3,79.7-45.07,111.07-75.31-178.61,66.4-375.36-4.65-449.16-167.03Z"/>
                </g>
              </g>
              <g>
                <path class="cls-3" d="M1739.28,554.17c20.21-11.04,40.49-21.33,60.91-31.67,34.33-17.39,71.6-28.24,109.86-32.4,127.76-13.92,191.42-61.16,144.59-118.05-62.23-73.49-126.83-11.35-215.02,63.03-11.04,9.31-23.19,17.24-36.13,23.65-35.36,17.53-70.73,35.05-106.09,52.58-15.32,7.59-32.04,12.09-49.11,12.91-106.31,5.1-181.28,46.54-190.71,97.48-2.06,11.15-2.18,29.2,11.42,53.9,59.11,51.27,124.34-14.97,212.75-83.69,18.13-14.09,37.39-26.74,57.55-37.75Z"/>
                <g class="cls-13">
                  <path class="cls-11" d="M1961.42,459.42c-40.34,6.07-59.92,1.1-110.43,13.2-31.63,7.58-53.09,16.51-62.75,20.77-28.98,12.79-47.5,25.83-61.51,35.17-68.8,45.84-137.52,91.62-191.48,72.02-7.67-2.79-18.59-8.18-30.11-19.76-2.32-5.37-4.04-10.38-5.35-15.08-23.5,15.83-38.37,35.09-42.23,55.96-2.06,11.15-2.18,29.2,11.42,53.9,59.12,51.27,124.34-14.96,212.75-83.69,18.13-14.09,37.39-26.74,57.55-37.75,20.21-11.04,40.49-21.33,60.91-31.67,34.33-17.39,71.6-28.24,109.86-32.4,84.81-9.24,141.32-33.17,156.07-64.86-43,21.78-79.35,30.37-104.7,34.19Z"/>
                </g>
                <path class="cls-11" d="M1514.02,707.54c-18.39,0-36.29-6.44-53.9-21.72l-1.82-1.58-1.16-2.11c-12.17-22.1-16.5-43.26-12.87-62.89,11.03-59.6,92.75-103.22,203.35-108.53,15.07-.72,29.79-4.6,43.76-11.52l106.09-52.58c12.04-5.97,23.29-13.33,33.42-21.88,4.84-4.08,9.6-8.12,14.3-12.11,41.67-35.35,77.67-65.88,112.46-79.52,41.29-16.19,76.38-6.31,107.3,30.2,22.75,27.63,20.48,50.63,14.59,65.09-15.62,38.35-75.3,65.04-168.03,75.14-37.17,4.05-72.57,14.49-105.21,31.03-18.73,9.48-39.96,20.24-60.54,31.47h0c-19.4,10.59-38.15,22.89-55.73,36.56-10.99,8.54-21.61,17.04-31.91,25.28-52.31,41.85-99.58,79.67-144.1,79.67Zm-34.35-40.61c40.73,33.23,85.94,.32,161.55-60.17,10.39-8.32,21.12-16.89,32.2-25.51,18.72-14.55,38.69-27.65,59.37-38.94h0c20.95-11.44,42.38-22.29,61.28-31.87,35.56-18.01,74.09-29.38,114.5-33.78,94.21-10.26,137.14-36.92,145.91-58.45,4.59-11.27,1.22-23.56-10.3-37.55-23.32-27.54-46.28-34.26-76.66-22.35-30.61,12-65.01,41.18-104.84,74.97-4.72,4-9.5,8.06-14.36,12.16-11.79,9.95-24.86,18.5-38.85,25.43l-106.09,52.58c-17.33,8.59-35.66,13.4-54.47,14.3-94.75,4.55-169.63,40.9-178.06,86.43-2.36,12.74,.61,27.11,8.81,42.76Z"/>
              </g>
            </g>
            <g>
              <g>
                <path class="cls-2" d="M2752.86,1629.64c-38.36,98.24-101.8,187.4-187.64,257.42-17.51,14.27-35.88,27.74-55.18,40.31-9.37,6.14-19.04,12.06-28.88,17.84-29.77,17.25-60.36,31.84-91.55,43.83-26.86,10.4-54.18,18.84-81.69,25.44-33.21,7.99-66.78,13.19-100.36,15.79-12.25,.91-24.48,1.49-36.71,1.76-223.72,4.37-443.4-107.24-565.14-310.95-179.4-300.04-78.26-686.14,225.8-862.42,58.58-33.91,120.46-57.68,183.42-71.58,7.34-1.69,14.77-3.18,22.21-4.52,19.88-3.7,39.83-6.45,59.8-8.24,46.17-4.14,92.45-3.23,137.93,2.46,45.47,5.64,90.27,16.09,133.42,31.11,13.73,4.77,27.29,9.98,40.71,15.69,20.09,8.57,39.77,18.09,58.99,28.74,95.84,52.72,179.21,130.49,238.95,230.46,103.21,172.59,113.55,373.63,45.91,546.86Z"/>
                <path class="cls-11" d="M2158.14,2033.51c-226.95,0-438.17-118.59-553.6-311.73-86.6-144.84-111.11-314.21-69-476.93,42.45-164.01,147.31-301.58,295.28-387.37,57.74-33.42,119.59-57.56,183.81-71.73,6.95-1.6,14.45-3.13,22.26-4.53,19.81-3.69,39.98-6.47,59.91-8.26,45.82-4.1,92.32-3.28,138.22,2.47,45.47,5.63,90.45,16.13,133.7,31.18,13.91,4.83,27.63,10.12,40.79,15.73,20.53,8.75,40.42,18.44,59.12,28.8,98.87,54.39,181.67,134.25,239.46,230.95,99.96,167.17,116.73,366.92,46.01,548.06-39.21,100.41-104.24,189.62-188.05,257.97-17.75,14.46-36.35,28.05-55.3,40.39-8.65,5.68-18.12,11.52-28.94,17.87-29.42,17.05-60.28,31.83-91.75,43.93-26.36,10.21-53.9,18.79-81.86,25.5-32.72,7.87-66.56,13.19-100.57,15.83-12.22,.91-24.59,1.5-36.78,1.76-4.24,.08-8.51,.12-12.74,.12Zm-3.83-1260.38c-19.14,0-38.25,.85-57.25,2.55-19.86,1.78-39.93,4.55-59.67,8.23-7.78,1.39-15.23,2.91-22.15,4.5-63.96,14.12-125.55,38.15-183.05,71.43-147.33,85.42-251.74,222.39-294.01,385.7-41.93,162-17.53,330.64,68.7,474.85,114.93,192.3,325.28,310.41,551.26,310.41,4.23,0,8.45-.04,12.69-.13,12.14-.26,24.46-.85,36.63-1.75,33.86-2.62,67.56-7.92,100.14-15.76,27.84-6.68,55.26-15.22,81.52-25.39,31.34-12.05,62.07-26.77,91.36-43.74,10.77-6.32,20.2-12.14,28.82-17.8,18.87-12.29,37.4-25.83,55.07-40.22,83.44-68.06,148.19-156.89,187.23-256.86h0c70.41-180.34,53.72-379.23-45.81-545.67-57.54-96.28-139.99-175.8-238.44-229.96-18.62-10.31-38.43-19.96-58.87-28.68-13.1-5.58-26.77-10.85-40.62-15.66-43.07-14.99-87.87-25.44-133.15-31.05-26.68-3.34-53.56-5.01-80.39-5.01Z"/>
              </g>
              <g class="cls-13">
                <path class="cls-11" d="M1605.72,1721.06c121.72,203.73,341.44,315.35,565.15,310.95,12.22-.25,24.45-.83,36.68-1.75,33.59-2.59,67.14-7.82,100.36-15.78,27.5-6.62,54.84-15.04,81.68-25.44,31.21-11.99,61.79-26.57,91.58-43.83,9.82-5.81,19.49-11.7,28.88-17.83,19.3-12.59,37.64-26.09,55.17-40.34,85.85-70.02,149.3-159.15,187.65-257.42,21.08-53.96,34.6-110.67,40.08-168.35-38.78,92.93-100.29,177.12-182.19,243.92-17.5,14.3-35.87,27.76-55.17,40.34-9.35,6.14-19.02,12.03-28.88,17.83-29.79,17.26-60.37,31.84-91.54,43.84-26.88,10.38-54.18,18.82-81.68,25.44-33.21,7.96-66.81,13.18-100.36,15.78-12.27,.91-24.5,1.49-36.72,1.74-223.71,4.41-443.39-107.21-565.15-310.95-71.06-118.83-98.06-251.17-85.92-378.59-73.66,176.26-65.53,383.36,40.37,560.44Z"/>
              </g>
              <path class="cls-11" d="M2158.16,2042.63c-230.16,0-444.37-120.29-561.44-316.17-87.86-146.95-112.72-318.8-70-483.89,43.06-166.4,149.44-305.96,299.53-392.98,58.56-33.89,121.28-58.37,186.42-72.75,7.02-1.62,14.66-3.17,22.62-4.6,20.03-3.73,40.48-6.55,60.71-8.37,46.46-4.16,93.62-3.32,140.17,2.5,46.09,5.72,91.71,16.35,135.57,31.62,14.1,4.89,28.02,10.26,41.37,15.95,20.82,8.88,41,18.71,59.97,29.21,100.26,55.15,184.26,136.16,242.87,234.25,101.42,169.6,118.43,372.28,46.68,556.05h0c-39.78,101.87-105.75,192.38-190.78,261.73-18,14.66-36.87,28.45-56.08,40.97-8.76,5.74-18.35,11.67-29.3,18.09-29.87,17.31-61.18,32.3-93.09,44.58-26.72,10.35-54.66,19.05-83.01,25.85-33.18,7.98-67.5,13.38-101.99,16.05-12.41,.92-24.94,1.52-37.29,1.78-4.3,.09-8.63,.13-12.92,.13Zm-3.85-1260.38c-18.87,0-37.71,.84-56.43,2.51-19.57,1.76-39.36,4.49-58.81,8.11-7.7,1.38-15,2.86-21.77,4.42-63.13,13.94-123.84,37.63-180.52,70.44-145.2,84.18-248.1,219.16-289.75,380.09-41.31,159.62-17.27,325.78,67.7,467.88,115.41,193.1,328.46,310.32,555.94,305.84,11.96-.25,24.12-.84,36.13-1.73,33.36-2.58,66.57-7.81,98.68-15.53,27.45-6.58,54.48-15,80.35-25.02,30.91-11.89,61.21-26.39,90.08-43.12,10.6-6.22,19.9-11.96,28.39-17.53,18.62-12.13,36.89-25.48,54.31-39.67,82.22-67.06,146.03-154.59,184.5-253.1h0c69.38-177.7,52.93-373.67-45.14-537.67-56.71-94.9-137.98-173.27-235.01-226.65-18.37-10.18-37.89-19.69-58.05-28.28-12.91-5.5-26.38-10.69-40.03-15.43-42.47-14.78-86.64-25.08-131.27-30.61-26.31-3.29-52.82-4.94-79.27-4.94Zm598.55,847.4h0Z"/>
              <path class="cls-11" d="M2158.17,2045.67c-231.24,0-446.44-120.85-564.06-317.65-88.29-147.65-113.26-320.33-70.33-486.21,43.27-167.19,150.15-307.41,300.95-394.84,58.83-34.05,121.84-58.64,187.29-73.09,7.04-1.62,14.73-3.19,22.74-4.62,20.1-3.74,40.65-6.57,60.97-8.4,46.69-4.18,94.07-3.34,140.82,2.51,46.3,5.74,92.13,16.43,136.19,31.76,14.16,4.92,28.14,10.31,41.56,16.03,20.92,8.92,41.19,18.79,60.25,29.35,100.73,55.41,185.12,136.8,244.01,235.35,101.91,170.41,119,374.06,46.9,558.72h0c-39.97,102.36-106.26,193.29-191.69,262.98-18.08,14.73-37.04,28.58-56.35,41.16-8.79,5.77-18.43,11.72-29.42,18.17-30.02,17.4-61.47,32.46-93.54,44.79-26.84,10.4-54.9,19.14-83.39,25.97-33.34,8.02-67.81,13.44-102.47,16.12-12.47,.93-25.06,1.53-37.45,1.8-4.32,.08-8.67,.13-12.98,.13Zm-3.86-1260.38c-18.78,0-37.53,.84-56.16,2.5-19.47,1.75-39.17,4.47-58.53,8.07-7.67,1.37-14.92,2.85-21.65,4.4-62.85,13.87-123.27,37.45-179.68,70.1-144.48,83.77-246.88,218.09-288.33,378.22-41.11,158.82-17.18,324.16,67.36,465.56,114.85,192.17,326.91,308.55,553.27,304.37,11.9-.26,24.01-.84,35.97-1.72,33.19-2.57,66.24-7.77,98.2-15.45,27.32-6.55,54.22-14.93,79.97-24.9,30.77-11.83,60.92-26.27,89.65-42.92,10.54-6.18,19.8-11.9,28.25-17.44,18.54-12.08,36.72-25.36,54.06-39.48,81.82-66.73,145.31-153.83,183.59-251.85h0c69.04-176.81,52.67-371.81-44.92-535-56.44-94.44-137.3-172.43-233.86-225.55-18.29-10.13-37.72-19.59-57.78-28.14-12.84-5.47-26.25-10.64-39.84-15.36-42.27-14.71-86.22-24.96-130.65-30.47-26.18-3.27-52.57-4.91-78.9-4.91Zm598.55,844.36h0Z"/>
              <path class="cls-11" d="M2674.94,1771.53c-337.67,302.77-866.95,184.2-951.83-254.05-57.75-298.16,193.76-583.57,487.77-619.39,213.98-26.07,434.63,40.76,567.06,357.09,0,0,36.7,148.92,8.43,254.72-28.27,105.81-73.9,203.97-73.9,203.97l-37.53,57.66Z"/>
              <path class="cls-9" d="M1723.12,1517.48c84.87,438.24,614.16,556.81,951.82,254.07l7.6-11.7c-399.18,123.54-838.21-66.21-932.39-507.75-33.24,82.58-44.83,173.37-27.03,265.38Z"/>
              <path class="cls-11" d="M2245.58,2017.88c-127.08,0-250.15-35.07-351.63-102.16-131.99-87.27-218.51-219.82-250.2-383.32-29.08-150.13,8.55-306.54,105.97-440.41,108.25-148.75,277.94-250.36,453.92-271.8,97.81-11.91,188.08-5.45,268.33,19.21l1.33,.41,1.22,.67c100.76,55.43,185.15,136.82,244.04,235.36,101.91,170.41,119,374.06,46.9,558.72h0c-39.97,102.36-106.26,193.3-191.69,262.98-18.08,14.73-37.04,28.58-56.35,41.16-8.79,5.77-18.43,11.72-29.42,18.17-30.02,17.4-61.47,32.46-93.54,44.79l-2.02,.6c-48.88,10.47-98.16,15.62-146.86,15.62Zm50.87-1176.45c-28.99,0-58.86,1.87-89.53,5.6-168.66,20.55-331.4,118.07-435.32,260.87-92.96,127.74-128.93,276.67-101.29,419.35,30.27,156.21,112.77,282.74,238.56,365.91,134.06,88.63,307.81,118.82,476.87,82.87,30.4-11.75,60.21-26.05,88.64-42.53,10.54-6.18,19.8-11.9,28.25-17.44,18.54-12.08,36.72-25.36,54.06-39.48,81.82-66.74,145.31-153.83,183.59-251.85,69.04-176.81,52.67-371.81-44.92-535-56.2-94.04-136.62-171.77-232.65-224.87-51.24-15.59-106.9-23.42-166.25-23.42Zm456.42,788.21h0Z"/>
              <path class="cls-2" d="M1438.36,1525.49c8.58,124.01,90.04,223.12,181.98,221.34,91.94-1.78,159.52-103.77,150.94-227.78-.04-.78-.12-1.6-.2-2.38-9.42-122.9-90.49-220.74-181.78-218.96-71.03,1.37-127.51,62.55-145.59,147.47-5.31,25.01-7.3,52.11-5.35,80.31Z"/>
              <g class="cls-13">
                <path class="cls-11" d="M1438.36,1525.49c8.58,124.01,90.04,223.12,181.98,221.34,91.94-1.78,159.52-103.77,150.94-227.78-.04-.78-.12-1.6-.2-2.38-9.23,12.92-24.09,25.76-45.7,21.95-37.84-6.69-110.35-85.14-110.35-85.14,0,0-74.27-4.08-171.32-8.3-5.31,25.01-7.3,52.11-5.35,80.31Z"/>
              </g>
              <path class="cls-11" d="M1617.93,1760.37c-97.8,0-184.11-104.22-193.09-233.94-5.23-75.63,16.13-145.62,58.59-192.03,29.36-32.08,65.87-49.44,105.57-50.21,98.67-1.86,186.7,103.01,195.75,233.91,5.23,75.63-16.13,145.62-58.59,192.02-29.36,32.08-65.87,49.45-105.57,50.21-.89,.02-1.78,.03-2.67,.03Zm-166.1-235.81c8.07,116.74,83.42,210.46,168.25,208.74,32.12-.62,61.91-14.95,86.15-41.44,36.94-40.36,56.22-104.62,51.56-171.89-8-115.73-82.25-208.76-166.05-208.76-.73,0-1.46,0-2.2,.02-32.12,.62-61.91,14.95-86.15,41.43-36.94,40.36-56.22,104.62-51.56,171.9Z"/>
              <g>
                <ellipse class="cls-2" cx="1552.68" cy="1544.51" rx="135.27" ry="178.94" transform="translate(-232.64 276.07) rotate(-9.46)"/>
                <path class="cls-11" d="M1565.39,1723.94c-11.55,0-23.3-1.93-35.05-5.82-41.85-13.83-77.67-50.62-98.28-100.95h0c-36.97-90.29-13.06-196.39,53.29-236.5,27.57-16.66,58.58-20.04,89.66-9.77,41.85,13.83,77.67,50.63,98.28,100.95,36.97,90.29,13.06,196.38-53.29,236.5-17.15,10.36-35.62,15.59-54.61,15.59Zm-130.71-107.83c20.29,49.55,55.48,85.76,96.55,99.33,30.27,10.01,60.47,6.72,87.31-9.51,65.22-39.43,88.61-143.95,52.14-233.01-20.29-49.56-55.48-85.76-96.55-99.33-30.29-10.01-60.47-6.72-87.31,9.51-65.21,39.42-88.61,143.95-52.14,233.01h0Z"/>
              </g>
              <g class="cls-13">
                <path class="cls-11" d="M1685.48,1611.74c6.09-33.33,2.93-68.45-7.41-100.95-20.39,74.84-85.85,109.12-151.98,76.81-42.74-20.86-75.91-64.76-91.88-115.05-1.32,4.71-2.4,9.65-3.34,14.7-15.48,84.89,28.97,181.58,99.29,215.95,70.32,34.37,139.84-6.62,155.32-91.46Z"/>
              </g>
              <path class="cls-11" d="M1564.05,1736.47c-75.88,0-143.76-86.74-151.62-194.12-4.68-64.07,12.97-124.58,47.23-161.87,22.01-23.95,49.14-36.79,78.45-37.13,76.26-1.1,144.88,86.2,152.77,194.11,4.68,64.06-12.97,124.58-47.23,161.87-22.01,23.95-49.14,36.79-78.45,37.13-.38,0-.77,0-1.15,0Zm-124.64-196.09c6.84,93.48,62.63,169.04,124.6,169.04,.3,0,.58,0,.88,0,21.67-.25,42.02-10.07,58.85-28.39,29.31-31.9,44.32-84.83,40.17-141.59-6.84-93.48-62.63-169.04-124.6-169.04-.3,0-.59,0-.88,0-21.67,.25-42.02,10.07-58.85,28.38-29.31,31.89-44.32,84.83-40.17,141.59h0Z"/>
              <g class="cls-16">
                <path class="cls-2" d="M2071.42,1044.51s280.07-16.38,452.95,122.68c.18,.15,.36,.29,.54,.44,36.36,29.3,64.03,67.76,80.41,111.13,21.66,57.35,28.07,99.99,32.24,137.73,12.64,114.8-3.23,170.89-3.23,170.89,59.56-67.63,89.31-140.41,79.75-236.14-.97-9.43-2.32-19.13-4.03-29.03-.38-2.28-.82-4.54-1.29-6.81,.05-.03,.02-.07-.05-.13-4.89-19.83-12.3-45.65-23.14-74.09-32.63-85.79-96.1-195.5-214.2-237.09-220.84-77.76-410.86,29.43-399.95,40.41Z"/>
              </g>
              <g class="cls-16">
                <ellipse class="cls-2" cx="1891.62" cy="1341.63" rx="98.15" ry="85.44" transform="translate(259.01 2988.69) rotate(-80.6)"/>
              </g>
              <g class="cls-16">
                <ellipse class="cls-2" cx="1863.99" cy="1517.8" rx="40.54" ry="35.27" transform="translate(-77.96 2934.49) rotate(-75.27)"/>
              </g>
            </g>
          </g>
        </g>
        <g>
          <path class="cls-6" d="M1320.53,1832.57c-3.6,5.95-10.07,9.48-17.02,9.89-603.43,34.99-718.36,1163.16-42.72,1163.16h380.54c136.33,0,256.91-93.05,286.54-226.12,14.89-66.84,5.58-135.68-33.43-186.84-16.92-22.19-27.32-48.66-28.34-76.55l-9.84-269.48c-4.77-130.72-69.71-253.06-178.06-326.34-18.66-12.62-38.1-23.54-58.33-32.74,20.21-6.86,33.46-15.72,40.5-26.37,8.22-12.44,3.54-29.39-9.77-36.1-51.71-26.07-112.23-21.71-178.69,3.13,111.43-107.89-97.28-85.01-151.38,4.36Z"/>
          <g class="cls-15">
            <path class="cls-2" d="M1279.87,1853.07c1.92-3.17,4.06-6.25,6.35-9.26-67.75,6.37-129.1,26.67-183.61,57.63,48.73-21.61,102.22-35.12,160.25-38.48,6.94-.4,13.41-3.94,17.01-9.89Z"/>
            <path class="cls-2" d="M1894.45,2592.66c-16.92-22.19-27.32-48.66-28.34-76.55l-9.84-269.48c-4.77-130.72-69.71-253.06-178.06-326.34-18.66-12.62-38.1-23.54-58.33-32.74,20.21-6.86,33.46-15.72,40.5-26.37,8.22-12.44,3.54-29.39-9.77-36.1-51.71-26.07-112.23-21.71-178.69,3.13,90.42-87.55-29.97-88.98-107.48-38.66,70.79-27.01,142.35-13.98,66.82,59.15,66.46-24.84,126.98-29.19,178.69-3.13,13.32,6.71,18,23.66,9.77,36.1-7.04,10.65-20.29,19.51-40.5,26.37,20.23,9.21,39.68,20.12,58.33,32.74,108.35,73.28,173.29,195.62,178.06,326.34l9.84,269.48c1.02,27.89,11.42,54.36,28.34,76.55,39.02,51.16,48.32,119.99,33.43,186.84-17.53,78.71-66.89,143.41-132.5,183.14,85.53-35.25,152.17-109.38,173.16-203.64,14.89-66.84,5.58-135.68-33.43-186.84Z"/>
          </g>
          <path class="cls-1" d="M1502.72,2517.46c-721.05,187.38-452.26-728.51-19.55-345.23,11.06,9.79,27.73,9.45,38.54-.61,324.93-302.34,517.02,436.63,67.74,332.15l-86.73,13.69Z"/>
          <path class="cls-11" d="M1641.34,3023.88h-380.54c-148.72,0-272.12-54.18-356.89-156.7-74.08-89.6-117.11-215.85-121.16-355.5-4.68-161.45,42.03-326.76,128.13-453.54,96.29-141.77,235.36-224.84,391.57-233.9,1.1-.06,2.09-.51,2.45-1.11h0c35.84-59.22,126.75-89.74,173.65-84.73,29.35,3.14,38.85,18.48,41.9,27.35,3.1,9.01,2.61,18.79-1.52,29.47,53.2-11.42,99.29-6.88,139.88,13.57,11.06,5.58,19.24,15.66,22.43,27.67,3.16,11.9,1.11,24.59-5.64,34.8-3.98,6.03-9.15,11.45-15.55,16.32,9.66,5.48,19.14,11.36,28.37,17.6,111.48,75.4,181.04,202.8,186.08,340.8l9.84,269.48c.85,23.27,9.36,46.14,24.61,66.13,40.18,52.7,53.57,126.28,36.74,201.88-31.02,139.3-159.03,240.41-304.37,240.41Zm-305.19-1181.85c-6.61,10.92-18.41,17.9-31.58,18.66-315.04,18.26-494.16,344.8-485.32,649.93,6.67,230.47,126.17,476.74,441.54,476.74h380.54c128.37,0,241.39-89.09,268.72-211.83,14.49-65.07,3.51-127.69-30.13-171.8-19.85-26.03-30.94-56.09-32.07-86.95l-9.84-269.48c-4.62-126.4-68.19-242.99-170.05-311.88-17.75-12-36.47-22.52-55.66-31.25-6.82-3.1-11.05-10.05-10.67-17.53,.37-7.48,5.27-13.97,12.37-16.38,15.59-5.29,26.36-11.91,31.14-19.15,1.38-2.09,1.1-4.2,.82-5.28-.3-1.14-1.17-3.23-3.58-4.44-44-22.18-97.66-20.9-164.08,3.93-8.1,3.03-17.21-.04-21.83-7.35-4.62-7.31-3.48-16.86,2.73-22.87,24.85-24.06,26.6-35.17,26.69-37.25-1.85-1.4-9.99-4.74-28.35-3.04-42.06,3.95-98.96,30.17-121.39,67.22h0Z"/>
          <ellipse class="cls-11" cx="1322.42" cy="2368.35" rx="90.53" ry="109.55"/>
          <ellipse class="cls-2" cx="1353.23" cy="2345.56" rx="32.02" ry="43.05"/>
          <g class="cls-14">
            <ellipse class="cls-2" cx="1296" cy="2414.56" rx="19.65" ry="30.33" transform="translate(-954.44 850.84) rotate(-26.98)"/>
          </g>
          <ellipse class="cls-11" cx="1700.94" cy="2368.35" rx="83.85" ry="109.55"/>
          <ellipse class="cls-2" cx="1672.4" cy="2345.56" rx="29.66" ry="43.05"/>
          <g class="cls-14">
            <ellipse class="cls-2" cx="1725.41" cy="2414.56" rx="29.92" ry="18.45" transform="translate(-1172.05 3056.31) rotate(-66.94)"/>
          </g>
          <path class="cls-1" d="M1388.76,2564.02c3.23-58.64,59.99-83.64,109.4-61.39,20.57-45.75,98.14-77.6,119.82-3.42,31.66-5.25,77.57,8.42,76.05,53.23-.34,10.13,7.35,18.78,17.46,19.45,325.57,21.5,254.4,459.33-161.59,433.74h-346.91c-305.74-53.45-194.84-427.3,164.7-421.64,11.33,.18,20.46-8.65,21.08-19.96Z"/>
          <g class="cls-13">
            <path class="cls-11" d="M1838.72,2205.16l8.82,249.72c.76,21.63,7.48,42.31,18.53,60.55l-9.82-268.79c-2.28-62.35-18.27-122.79-46.11-176.91,17.07,42.51,26.91,88.38,28.57,135.44Z"/>
            <path class="cls-11" d="M1626.76,1872.41c4.41,2.07,8.77,4.25,13.1,6.51,9.36-5.19,16.14-11.11,20.52-17.73,3.16-4.78,4.4-10.23,3.99-15.51-.38,.78-.81,1.55-1.29,2.3-6.31,9.87-18.2,18.08-36.32,24.43Z"/>
            <path class="cls-11" d="M1343.09,1830.62c6.23-.37,12.03-3.65,15.26-9.16,18.17-31.02,55.79-53.39,90.49-63.99-44.32,6.26-103.09,33.46-128.3,75.1,0,.02-.02,.03-.03,.05,7.45-.85,14.97-1.54,22.59-2Z"/>
            <path class="cls-11" d="M1906.61,2610.87c4.07,28.46,2.71,58.47-3.67,88.08-26.57,123.31-134.69,209.54-256.93,209.54h-341.22c-564.57,0-513.51-907.87-66.05-1057.76-546.04,108.49-628.65,1154.9,22.06,1154.9h380.54c136.33,0,256.91-93.05,286.54-226.12,13.19-59.21,7.34-119.96-21.27-168.63Z"/>
          </g>
          <path class="cls-11" d="M1583.84,3018.09c-11.19,0-22.62-.35-34.31-1.06h-346.56c-.66,0-1.32-.06-1.97-.17-148.91-26.03-193.86-120.93-186.28-201.06,11.4-120.42,138.93-246.53,353.12-243.23h.15c5.05,0,9.06-3.92,9.35-9.17,1.63-29.55,15.4-53.65,38.77-67.86,22.24-13.53,50.28-16.03,76.73-7.21,17.04-27.59,50.07-46.68,79.49-44.58,14.56,1.01,39.84,8.13,53.49,43.16,18.71-.97,42.68,3.24,59.93,18.38,13.51,11.86,20.31,28.29,19.65,47.53-.13,4.04,2.85,7.41,6.81,7.68,156.57,10.34,220.48,111.75,214.36,207.68-7.95,124.74-130.18,249.92-342.75,249.92Zm-379.87-23.88h345.91c.23,0,.47,0,.7,.02,219.18,13.53,345.56-107.16,353.23-227.51,5.4-84.61-52.22-174.15-193.09-183.45-16.32-1.08-28.67-14.79-28.11-31.22,.42-12.35-3.58-22.31-11.9-29.61-13.51-11.86-35.29-14.58-50.88-11.98-5.7,.93-11.2-2.52-12.82-8.06-4.55-15.55-14.52-34.39-36.24-35.89-23-1.54-51.56,17.08-62.22,40.79-1.24,2.76-3.53,4.92-6.36,5.99-2.83,1.08-5.97,.98-8.73-.26-22.37-10.07-46.84-9.33-65.48,2-16.75,10.19-26.64,27.81-27.84,49.61-.96,17.51-15.39,31.05-32.65,30.75-117.32-1.88-193.7,37.04-237,69.99-53.82,40.96-87.73,96.57-93.04,152.57-8.43,89.03,55.35,156.5,166.52,176.26Zm184.78-430.19h0Z"/>
          <ellipse class="cls-11" cx="1626.16" cy="2564.6" rx="26.6" ry="16.27" transform="translate(-1170.83 1382.06) rotate(-34.7)"/>
          <ellipse class="cls-11" cx="1493.79" cy="2567.45" rx="16.27" ry="26.6" transform="translate(-1467.4 2333.76) rotate(-55.3)"/>
          <path class="cls-11" d="M1319.13,2777.82c46.52,61.83,135.03,81.84,208.6,86.04,94.68,3.65,210.29-14.95,267.99-97.85,1.65-2.55,5.08-3.27,7.61-1.58,2.2,1.46,2.99,4.23,2.05,6.59-8.96,22.33-24.45,42-42.72,57.86-94.87,80.46-266.1,81.56-373.49,25.96-10.53-5.64-20.87-11.73-30.38-19.05-19.15-14.3-36.12-32.33-46.78-53.75-2.15-4.5,4.18-8.4,7.12-4.21h0Z"/>
          <path class="cls-11" d="M1580.52,2637.31c17.07,37.67,17.06,81.18,8.31,120.97-3.2,13.3-7.68,26.45-14.6,38.38-1.15,1.98-3.68,2.65-5.66,1.5-1.62-.94-2.37-2.82-1.95-4.55,8.21-37.63,8.37-76.25,5.26-114.42-.91-12.75-2.51-25.36-3.96-38.24-.84-7.35,9.43-10.28,12.6-3.63h0Z"/>
          <path class="cls-6" d="M926.06,2287.71c12.17,98.9,12.17,197.8,0,296.7-53.83,63.79-132.08,93.62-196.62,73.02-116-37.03-111.19-212.55-110.73-223.65,2.68-65.15,32.5-194.22,132.6-216.34,91.58-20.24,170,64.96,174.75,70.28Z"/>
          <g class="cls-15">
            <path class="cls-2" d="M926.06,2287.71c-4.75-5.31-83.17-90.52-174.75-70.28-48.3,10.67-80.2,46.27-100.62,87.55,19.82-27.66,46.69-49.48,82.68-57.43,91.58-20.24,170,64.96,174.75,70.28,11.67,94.78,12.12,189.56,1.43,284.34,5.71-5.59,11.24-11.51,16.52-17.76,12.17-98.9,12.17-197.8,0-296.7Z"/>
          </g>
          <g class="cls-13">
            <path class="cls-11" d="M770.53,2563.88c-116-37.03-111.19-212.55-110.73-223.65,.76-18.39,3.68-41.88,9.73-66.61-35.99,49.37-49.08,118.08-50.81,160.16-.46,11.09-5.27,186.62,110.73,223.65,64.54,20.6,142.79-9.22,196.62-73.02,2.43-19.75,4.35-39.49,5.81-59.24-49.59,39.44-109.83,55.15-161.35,38.71Z"/>
          </g>
          <path class="cls-11" d="M771.23,2682.01c-16.24,0-32.16-2.34-47.34-7.19-130.14-41.54-123.75-233.63-123.42-241.79,3.1-75.32,37.52-209.25,146.9-233.42,102.68-22.72,188.69,71.9,192.3,75.93,2.48,2.78,4.06,6.25,4.51,9.94,12.29,99.92,12.29,201.24,0,301.16-.43,3.52-1.88,6.84-4.17,9.54-46.07,54.6-109.51,85.83-168.79,85.83Zm8.83-449.43c-8.13,0-16.41,.84-24.81,2.69-87.89,19.42-115.81,138.84-118.29,199.27-.29,7.02-5.88,172.33,98.04,205.5,55.32,17.66,124.5-7.76,173.61-63.34,11.03-93.2,11.05-187.62,.05-280.83-14.34-14.66-66.6-63.29-128.59-63.29Z"/>
          <path class="cls-1" d="M935.19,2371.75c-220.62-167.72-248.01,292.13-2.68,144.42l2.68-144.42Z"/>
          <path class="cls-11" d="M844.51,2559.51c-40.18,0-63.3-21.45-73.7-34.62-37.57-47.59-32.77-133.64,9.87-177.07,18.72-19.06,72.05-55.96,162.81,13.03,3.48,2.65,5.48,6.79,5.4,11.16l-2.68,144.41c-.09,4.71-2.59,9.05-6.63,11.48-38.88,23.41-70.24,31.61-95.07,31.61Zm.76-211.41c-17.43,0-32.66,6.27-45.06,18.91-33.33,33.94-37.25,103.74-7.91,140.9,25.49,32.29,70.31,32.33,126.66,.32l2.4-129.68c-28.07-20.25-53.87-30.45-76.1-30.45Z"/>
        </g>
      </g>
      <g>
        <path class="cls-5" d="M831.45,2774.28c27.78-3.31,55.56-10.07,83.34-20.29,20.86-7.67,44.35-2.74,60.52,12.51,198.58,187.29-114.84,288.46-161.6,32.01-2.13-11.66,5.97-22.83,17.74-24.23Z"/>
        <g class="cls-13">
          <path class="cls-11" d="M894.73,2770.74c-.65-3.56-.25-7.05,.83-10.25-21.37,6.63-42.74,11.24-64.11,13.79-11.77,1.4-19.86,12.58-17.74,24.23,29.71,162.93,167.02,181.48,212.32,125.33-53.45-6.85-112.93-52.39-131.3-153.09Z"/>
        </g>
        <path class="cls-11" d="M959.11,2970.79c-5.58,0-11.25-.37-16.98-1.13-57.35-7.6-125.91-55.7-146.37-167.88-1.92-10.54,.63-21.54,7-30.18,6.33-8.57,16-14.21,26.54-15.46h0c26.24-3.12,52.88-9.61,79.19-19.29,27.1-9.98,58.24-3.55,79.35,16.36,88.22,83.2,73.28,143.59,62.77,165.7-15.32,32.22-50.88,51.88-91.51,51.88Zm-125.49-178.38h0c-.6,.07-1.1,.37-1.48,.89-.3,.4-.62,1.06-.46,1.93,16.94,92.9,70.64,132.31,115.24,138.23,31.7,4.22,60.11-7.95,70.72-30.23,14.75-31-5.76-77.15-54.85-123.45-11.12-10.48-27.49-13.87-41.69-8.66-28.99,10.66-58.43,17.83-87.49,21.28Z"/>
      </g>
    </g>
  </g>
</svg>